<?xml version="1.0" encoding="UTF-8" standalone="no"?>
<!DOCTYPE svg PUBLIC "-//W3C//DTD SVG 1.1//EN" "http://www.w3.org/Graphics/SVG/1.1/DTD/svg11.dtd">
<svg width="100%" height="100%" viewBox="0 0 32 64" version="1.1" xmlns="http://www.w3.org/2000/svg" xmlns:xlink="http://www.w3.org/1999/xlink" xml:space="preserve" xmlns:serif="http://www.serif.com/" style="fill-rule:evenodd;clip-rule:evenodd;stroke-linejoin:round;stroke-miterlimit:2;">
    <g transform="matrix(0.125,0,0,0.125,0,0)">
        <path d="M160,64C160,52.2 153.5,41.4 143.1,35.8C132.7,30.2 120.1,30.8 110.3,37.4L14.3,101.4C-0.5,111.2 -4.4,131 5.4,145.8C15.2,160.6 35.1,164.5 49.8,154.7L96,123.8L96,416L32,416C14.3,416 0,430.3 0,448C0,465.7 14.3,480 32,480L224,480C241.7,480 256,465.7 256,448C256,430.3 241.7,416 224,416L160,416L160,64Z" style="fill:white;fill-rule:nonzero;"/>
    </g>
</svg>
