<?xml version="1.0" encoding="UTF-8" standalone="no"?>
<!DOCTYPE svg PUBLIC "-//W3C//DTD SVG 1.1//EN" "http://www.w3.org/Graphics/SVG/1.1/DTD/svg11.dtd">
<svg width="100%" height="100%" viewBox="0 0 64 64" version="1.1" xmlns="http://www.w3.org/2000/svg" xmlns:xlink="http://www.w3.org/1999/xlink" xml:space="preserve" xmlns:serif="http://www.serif.com/" style="fill-rule:evenodd;clip-rule:evenodd;stroke-linejoin:round;stroke-miterlimit:2;">
    <path d="M50.514,26.673C50.514,26.673 50.517,28.74 49.001,27.249C47.485,25.759 27.524,5.773 27.524,5.773C27.524,5.773 25.211,3.545 22.692,6.065C20.173,8.584 22.319,10.727 22.319,10.727L36.846,25.254C36.846,25.254 38.07,26.281 36.906,27.445C35.741,28.61 35.066,27.543 35.066,27.543L18.5,10.976C18.5,10.976 16.412,8.699 13.622,11.49C10.832,14.28 13.405,16.116 13.405,16.116L29.979,32.689C29.979,32.689 30.786,33.42 29.685,34.52C28.585,35.621 27.891,34.823 27.891,34.823L12.988,19.919C12.988,19.919 11.079,17.685 8.235,20.529C5.391,23.373 8.051,25.23 8.051,25.23L22.721,39.9C22.721,39.9 23.542,40.804 22.527,41.819C21.511,42.834 20.687,42.002 20.687,42.002L11.238,32.553C11.238,32.553 8.885,30.525 6.371,33.039C3.857,35.552 6.149,37.565 6.149,37.565L22.297,53.713C22.297,53.713 29.253,60.095 37.639,60.095C46.026,60.095 59.03,51.548 59.544,39.947C60.059,28.346 59.544,17.953 59.544,17.953C59.544,17.953 59.392,14.054 55.051,14.054C50.709,14.054 50.49,18.085 50.49,18.085L50.514,26.673Z" style="fill:white;"/>
    <path d="M34.254,4.864C34.254,6.643 35.427,6.633 36.222,6.633C37.017,6.633 38.462,6.965 39.98,8.483C41.497,10.001 41.527,11.107 41.527,12.042C41.527,12.977 41.963,13.848 43.28,13.848C44.597,13.848 45.06,13.266 45.044,11.914C45.028,10.561 44.551,8.101 42.471,6.021C40.391,3.941 38.065,3.183 36.236,3.183C34.978,3.183 34.254,3.606 34.254,4.864Z" style="fill:white;"/>
    <g transform="matrix(-1,1.22465e-16,-1.22465e-16,-1,46.8715,56.686)">
        <path d="M34.254,4.864C34.254,6.643 35.427,6.633 36.222,6.633C37.017,6.633 38.462,6.965 39.98,8.483C41.497,10.001 41.527,11.107 41.527,12.042C41.527,12.977 41.963,13.848 43.28,13.848C44.597,13.848 45.06,13.266 45.044,11.914C45.028,10.561 44.551,8.101 42.471,6.021C40.391,3.941 38.065,3.183 36.236,3.183C34.978,3.183 34.254,3.606 34.254,4.864Z" style="fill:white;"/>
    </g>
</svg>
