<?xml version="1.0" encoding="UTF-8" standalone="no"?>
<!DOCTYPE svg PUBLIC "-//W3C//DTD SVG 1.1//EN" "http://www.w3.org/Graphics/SVG/1.1/DTD/svg11.dtd">
<svg width="100%" height="100%" viewBox="0 0 64 64" version="1.1" xmlns="http://www.w3.org/2000/svg" xmlns:xlink="http://www.w3.org/1999/xlink" xml:space="preserve" xmlns:serif="http://www.serif.com/" style="fill-rule:evenodd;clip-rule:evenodd;stroke-linejoin:round;stroke-miterlimit:2;">
    <g transform="matrix(0.125,0,0,0.125,0,0)">
        <path d="M344,224L472,224C485.3,224 496,213.3 496,200L496,72C496,62.3 490.2,53.5 481.2,49.8C472.2,46.1 461.9,48.1 455,55L413.4,96.6C325.8,10.1 184.7,10.4 97.6,97.6C10.1,185.1 10.1,326.9 97.6,414.4C185.1,501.9 326.9,501.9 414.4,414.4C426.9,401.9 426.9,381.6 414.4,369.1C401.9,356.6 381.6,356.6 369.1,369.1C306.6,431.6 205.3,431.6 142.8,369.1C80.3,306.6 80.3,205.3 142.8,142.8C205,80.6 305.5,80.3 368.1,141.8L327,183C320.1,189.9 318.1,200.2 321.8,209.2C325.5,218.2 334.3,224 344,224Z" style="fill:white;fill-rule:nonzero;"/>
    </g>
</svg>
